{"title":"Backyard.aka.El traspatio.2009.DVDRiP.XViD.AC3.Optional.NORDIC.Z","uid":5817806,"size":1486749137,"categoryP":"video","categoryS":"movies","magnet":"?xt=urn:btih:7351a70b91c590fea16653e5ab64da8e7d4edf03&amp;dn=Backyard.aka.El+traspatio.2009.DVDRiP.XViD.AC3.Optional.NORDIC.Z&amp;tr=udp%3A%2F%2Ftracker.openbittorrent.com%3A80&amp;tr=udp%3A%2F%2Fopen.demonii.com%3A1337&amp;tr=udp%3A%2F%2Ftracker.coppersurfer.tk%3A6969&amp;tr=udp%3A%2F%2Fexodus.desync.com%3A6969","seeders":0,"leechers":0,"uploader":"Zen_Bud","files":-1,"time":1283931265,"description":"\nComplete name                    : Backyard.aka.El traspatio.2009.avi\nFormat                           : AVI\nFile size                        : 1.37 GiB\nDuration                         : 1h 57mn\nOverall bit rate                 : 1 675 Kbps\n\nVideo\n\nFormat                           : MPEG-4 Visual\nCodec ID/Hint                    : XviD\nDuration                         : 1h 57mn\nBit rate                         : 1 216 Kbps\nWidth                            : 720 pixels\nHeight                           : 424 pixels\nDisplay aspect ratio             : 2.40:1\nStream size                      : 1 019 MiB (73%)\nWriting library                  : XviD 1.1.2 (UTC 2006-11-01)\n\nAudio\n\nFormat                           : AC-3\nDuration                         : 1h 57mn\nBit rate                         : 448 Kbps\nChannel(s)                       : 6 channels\nChannel positions                : Front: L C R, Side: L R, LFE\nSampling rate                    : 48.0 KHz\nBit depth                        : 16 bits\nStream size                      : 375 MiB (27%)\nLanguage.........................: Spanish\n\nText #1\nLanguage                         : Finnish\n\nText #2\nLanguage                         : Norwegian\n\nText #3\nLanguage                         : Swedish\n\nText #4\nLanguage                         : Danish","torrent":{"xt":"urn:btih:7351a70b91c590fea16653e5ab64da8e7d4edf03","amp;dn":"Backyard.aka.El+traspatio.2009.DVDRiP.XViD.AC3.Optional.NORDIC.Z","amp;tr":["udp%3A%2F%2Ftracker.openbittorrent.com%3A80","udp%3A%2F%2Fopen.demonii.com%3A1337","udp%3A%2F%2Ftracker.coppersurfer.tk%3A6969","udp%3A%2F%2Fexodus.desync.com%3A6969"],"infoHash":"7351a70b91c590fea16653e5ab64da8e7d4edf03","infoHashBuffer":{"type":"Buffer","data":[115,81,167,11,145,197,144,254,161,102,83,229,171,100,218,142,125,78,223,3]},"announce":[],"urlList":[]}}